<svg width="267" height="60" viewBox="0 0 267 60" fill="none" xmlns="http://www.w3.org/2000/svg">
<g clip-path="url(#clip0_12237_3828)">
<path d="M60.1406 58.6937C52.8658 49.1949 47.6912 39.8931 44.4761 30.3942C41.1879 20.7039 39.9829 10.839 40.7036 0.495542C40.7036 0.377299 40.6304 0.275947 40.5347 0.253425L39.5381 0.0281995C39.3523 -0.0281068 39.1946 4.63969e-05 39.1214 0.191488C35.6417 8.17009 30.2644 15.214 23.2543 21.1149C16.7734 26.5485 8.99191 30.9967 0.146193 34.1386C0.0729949 34.1611 -0.00583395 34.2287 -0.000203321 34.3582L0.146193 35.7095C0.168716 35.8277 0.241914 35.9009 0.365788 35.9009C1.16534 35.8784 1.88606 35.8784 2.61241 35.8784C9.30723 35.8784 15.7599 36.5316 25.7205 39.7467C37.1788 43.4178 48.3669 50.2365 58.9525 59.955C59.0651 60.0338 59.1721 60.0057 59.2453 59.9325L60.118 58.9415C60.1743 58.8683 60.2025 58.7726 60.1462 58.6937H60.1406Z" fill="white"/>
<path d="M60.3768 31.5708C61.0469 28.5246 62.905 27.0212 67.8092 26.43L72.6741 25.8388C72.8318 24.1383 72.0435 23.5077 69.9827 23.5077C68.2822 23.5077 66.5424 23.7442 64.2901 24.2566C63.4624 24.4536 63.1809 24.1383 63.3385 23.3895L64.0874 19.9097C64.2056 19.3185 64.3633 19.1609 65.1178 18.9187C67.0942 18.3275 69.307 18.0122 71.4466 18.0122C77.4939 18.0122 79.8701 21.4131 78.6032 27.421L76.5086 37.3872C76.3903 37.939 76.1933 38.1361 75.557 38.1361H72.0773C71.4072 38.1361 71.2101 37.9784 71.1651 37.3478L71.1257 36.1597C69.5435 37.8996 68.0401 38.4908 65.8273 38.4908C61.5987 38.4908 59.4984 35.4841 60.3712 31.5708H60.3768ZM68.2484 33.9863C69.3183 33.9863 70.3824 33.5527 71.2946 32.68L71.9646 29.5944L68.8002 29.9097C67.2574 30.0674 66.5874 30.6586 66.3509 31.689C66.075 32.9953 66.7451 33.9807 68.2484 33.9807V33.9863Z" fill="#1A2732"/>
<path d="M81.4411 26.7062C82.7474 20.6983 86.0695 18.0068 91.6832 18.0068C97.6517 18.0068 100.264 21.8413 99.0368 28.4066L98.9186 29.0372C98.7609 29.8255 98.485 30.0676 97.9276 30.0676H87.3307C87.3702 32.517 88.7553 33.5474 91.6832 33.5474C93.2654 33.5474 95.0053 33.3503 96.5481 32.8773C97.297 32.6408 97.6573 33.0744 97.5391 33.6262L96.7902 36.9089C96.672 37.4607 96.5143 37.6577 95.878 37.8604C94.0988 38.4122 92.4377 38.5305 90.8161 38.5305C83.226 38.5305 79.8645 33.9021 81.4467 26.7062H81.4411ZM87.8882 26.4303H93.7778C94.1325 23.8233 93.3048 22.714 91.5256 22.714C89.7463 22.714 88.637 23.5868 87.8882 26.4303Z" fill="#1A2732"/>
<path d="M100.186 37.1059L104.02 19.1555C104.138 18.6037 104.336 18.4066 104.972 18.4066H108.649C109.279 18.4066 109.476 18.6431 109.476 19.1949L109.516 20.7771C111.098 18.9584 113.074 18.0068 115.726 18.0068C119.324 18.0068 121.655 20.3773 120.473 25.9967L118.063 37.3875C117.945 37.9393 117.748 38.1363 117.111 38.1363H112.562C111.852 38.1363 111.65 37.7816 111.813 37.1059L114.262 25.7152C114.617 24.0147 113.908 23.187 112.483 23.187C111.374 23.187 110.191 23.6994 109.161 24.6904L106.43 37.3818C106.312 37.9336 106.115 38.1307 105.479 38.1307H100.929C100.22 38.1307 100.017 37.776 100.18 37.1003L100.186 37.1059Z" fill="#1A2732"/>
<path d="M121.779 31.5708C122.449 28.5246 124.307 27.0212 129.212 26.43L134.076 25.8388C134.234 24.1383 133.446 23.5077 131.385 23.5077C129.685 23.5077 127.945 23.7442 125.692 24.2566C124.865 24.4536 124.583 24.1383 124.741 23.3895L125.49 19.9097C125.608 19.3185 125.766 19.1609 126.52 18.9187C128.496 18.3275 130.709 18.0122 132.849 18.0122C138.896 18.0122 141.272 21.4131 140.005 27.421L137.911 37.3872C137.793 37.939 137.596 38.1361 136.959 38.1361H133.48C132.81 38.1361 132.612 37.9784 132.567 37.3478L132.528 36.1597C130.946 37.8996 129.442 38.4908 127.23 38.4908C123.001 38.4908 120.901 35.4841 121.774 31.5708H121.779ZM129.645 33.9863C130.715 33.9863 131.779 33.5527 132.691 32.68L133.361 29.5944L130.197 29.9097C128.654 30.0674 127.984 30.6586 127.748 31.689C127.472 32.9953 128.142 33.9807 129.645 33.9807V33.9863Z" fill="#1A2732"/>
<path d="M158.874 18.8404C158.874 16.9372 159.803 16.0082 162.455 15.6928L164.634 15.4338C164.595 14.2852 164.043 13.8291 162.731 13.8291C161.7 13.8291 160.771 13.9699 159.82 14.2232C159.6 14.2627 159.465 14.1613 159.465 13.9642V12.4214C159.465 12.1624 159.566 12.0836 159.803 12.0048C160.873 11.6669 161.881 11.5093 163.147 11.5093C165.94 11.5093 167.263 12.7536 167.263 15.3494V21.1489C167.263 21.3854 167.162 21.5036 166.926 21.5036H165.124C164.887 21.5036 164.786 21.4248 164.769 21.1489L164.707 20.2762C164.031 21.2052 162.967 21.6838 161.779 21.6838C159.977 21.7063 158.868 20.5746 158.868 18.8347L158.874 18.8404ZM162.753 19.73C163.345 19.73 164.06 19.5104 164.656 19.0374V17.0949L162.995 17.275C161.909 17.3764 161.413 17.748 161.413 18.5194C161.413 19.2908 161.83 19.7244 162.759 19.7244L162.753 19.73Z" fill="white"/>
<path d="M169.42 16.5822C169.42 13.1757 171.16 11.5146 173.936 11.5146C176.712 11.5146 178.249 13.1757 178.249 16.3457V16.9764C178.249 17.2128 178.148 17.3311 177.911 17.3311H172.151C172.309 18.8739 173.08 19.5496 174.882 19.5496C175.693 19.5496 176.543 19.4088 177.478 19.1329C177.737 19.0315 177.911 19.1723 177.911 19.3694V20.8165C177.911 21.0529 177.872 21.1712 177.573 21.25C176.661 21.5484 175.574 21.7061 174.662 21.7061C171.059 21.7061 169.415 20.0451 169.415 16.5766L169.42 16.5822ZM172.151 15.6701H175.794C175.755 14.1273 175.18 13.4516 174.054 13.4516C172.928 13.4516 172.292 14.1273 172.151 15.6701Z" fill="white"/>
<path d="M180.529 21.132V12.0667C180.529 11.8302 180.647 11.6895 180.906 11.6895H182.708C182.944 11.6895 183.063 11.7514 183.085 12.0442L183.147 12.9958C183.761 12.0048 184.673 11.5093 185.956 11.5093C186.232 11.5093 186.35 11.6275 186.35 11.864V13.587C186.35 13.846 186.272 13.9417 185.973 13.9642C184.926 14.0262 184.031 14.3021 183.22 15.0341V21.132C183.22 21.391 183.102 21.5093 182.843 21.5093H180.901C180.664 21.5093 180.523 21.391 180.523 21.132H180.529Z" fill="white"/>
<path d="M187.297 16.6216C187.297 13.3165 188.981 11.5146 192.05 11.5146C195.118 11.5146 196.779 13.3165 196.779 16.6216C196.779 19.9268 195.118 21.7117 192.027 21.7117C188.936 21.7117 187.297 19.9099 187.297 16.6216ZM194.026 16.6216C194.026 14.6228 193.395 13.6712 192.044 13.6712C190.693 13.6712 190.045 14.6396 190.045 16.6216C190.045 18.6036 190.698 19.5327 192.044 19.5327C193.39 19.5327 194.026 18.5811 194.026 16.6216Z" fill="white"/>
<path d="M199.014 25.1917V12.0667C199.014 11.8302 199.133 11.6895 199.392 11.6895H201.193C201.43 11.6895 201.548 11.7683 201.571 12.0667L201.633 12.6973C202.348 11.9259 203.294 11.5093 204.482 11.5093C206.757 11.5093 208.26 13.0352 208.26 16.4361C208.26 20.1354 206.796 21.7007 204.279 21.7007C203.311 21.7007 202.46 21.4023 201.706 20.7491V25.1861C201.706 25.4451 201.588 25.5633 201.329 25.5633H199.386C199.15 25.5633 199.009 25.4451 199.009 25.1861L199.014 25.1917ZM201.706 14.5442V18.9192C202.297 19.3359 202.855 19.471 203.485 19.471C204.814 19.471 205.507 18.6377 205.507 16.56C205.507 14.4823 204.752 13.7277 203.547 13.7277C202.916 13.7277 202.258 13.9868 201.706 14.5386V14.5442Z" fill="white"/>
<path d="M210.433 18.3223V12.0667C210.433 11.8302 210.552 11.6895 210.788 11.6895H212.748C212.984 11.6895 213.102 11.8302 213.102 12.0667V17.9451C213.102 19.0318 213.558 19.471 214.471 19.471C215.101 19.471 215.816 19.2345 216.391 18.6208V12.0667C216.391 11.8302 216.509 11.6895 216.745 11.6895H218.705C218.941 11.6895 219.059 11.8302 219.059 12.0667V21.132C219.059 21.391 218.958 21.5093 218.705 21.5093H216.886C216.627 21.5093 216.531 21.4304 216.509 21.132L216.447 20.4563C215.675 21.3066 214.628 21.7007 213.457 21.7007C211.599 21.7007 210.428 20.7322 210.428 18.3167L210.433 18.3223Z" fill="white"/>
<path d="M221.301 16.5822C221.301 13.1757 223.04 11.5146 225.816 11.5146C228.592 11.5146 230.129 13.1757 230.129 16.3457V16.9764C230.129 17.2128 230.028 17.3311 229.792 17.3311H224.031C224.189 18.8739 224.96 19.5496 226.762 19.5496C227.573 19.5496 228.423 19.4088 229.358 19.1329C229.617 19.0315 229.792 19.1723 229.792 19.3694V20.8165C229.792 21.0529 229.752 21.1712 229.454 21.25C228.542 21.5484 227.455 21.7061 226.543 21.7061C222.939 21.7061 221.295 20.0451 221.295 16.5766L221.301 16.5822ZM224.037 15.6701H227.68C227.641 14.1273 227.066 13.4516 225.94 13.4516C224.814 13.4516 224.178 14.1273 224.037 15.6701Z" fill="white"/>
<path d="M232.41 21.132V12.0667C232.41 11.8302 232.528 11.6895 232.787 11.6895H234.589C234.825 11.6895 234.943 11.7514 234.966 12.0442L235.028 12.9958C235.641 12.0048 236.554 11.5093 237.837 11.5093C238.113 11.5093 238.231 11.6275 238.231 11.864V13.587C238.231 13.846 238.152 13.9417 237.854 13.9642C236.807 14.0262 235.912 14.3021 235.101 15.0341V21.132C235.101 21.391 234.983 21.5093 234.724 21.5093H232.782C232.545 21.5093 232.404 21.391 232.404 21.132H232.41Z" fill="white"/>
<path d="M241.199 18.677V13.8291H239.87C239.634 13.8291 239.516 13.6883 239.516 13.4518V12.0667C239.516 11.8302 239.617 11.6894 239.87 11.6894H241.255L241.61 9.41465C241.649 9.15564 241.751 9.02051 242.004 9.02051H243.389C243.648 9.02051 243.744 9.16127 243.744 9.41465V11.6894H245.602C245.86 11.6894 245.956 11.8302 245.956 12.0667V13.4518C245.956 13.6883 245.855 13.8291 245.602 13.8291H243.862V18.4631C243.862 19.1388 244.098 19.4147 244.751 19.4147C245.027 19.4147 245.326 19.3921 245.602 19.3527C245.838 19.2908 245.996 19.4315 245.996 19.6511V21.0588C245.996 21.2953 245.894 21.4135 245.618 21.4755C245.067 21.5768 244.588 21.6331 244.155 21.6331C241.841 21.6331 241.188 20.6815 241.188 18.6827L241.199 18.677Z" fill="white"/>
<path d="M247.573 16.6216C247.573 13.3165 249.257 11.5146 252.325 11.5146C255.394 11.5146 257.055 13.3165 257.055 16.6216C257.055 19.9268 255.394 21.7117 252.303 21.7117C249.212 21.7117 247.573 19.9099 247.573 16.6216ZM254.302 16.6216C254.302 14.6228 253.671 13.6712 252.32 13.6712C250.969 13.6712 250.321 14.6396 250.321 16.6216C250.321 18.6036 250.974 19.5327 252.32 19.5327C253.666 19.5327 254.302 18.5811 254.302 16.6216Z" fill="white"/>
<path d="M259.228 21.3516C258.952 21.2897 258.851 21.1545 258.851 20.8786V19.6342C258.851 19.3358 258.992 19.2007 259.363 19.257C260.315 19.4372 261.283 19.5554 261.936 19.5554C263.006 19.5554 263.242 19.1782 263.242 18.6658C263.242 18.2322 263.062 17.9507 262.173 17.6185L261.047 17.2018C259.504 16.6275 258.969 15.6365 258.969 14.2908C258.969 12.6297 260.016 11.5205 262.55 11.5205C263.439 11.5205 264.329 11.6219 265.044 11.8189C265.32 11.8978 265.421 12.0385 265.421 12.2919V13.4574C265.421 13.7728 265.28 13.9135 264.909 13.8516C264.194 13.7108 263.423 13.6545 262.792 13.6545C261.841 13.6545 261.548 13.9304 261.548 14.3865C261.548 14.8426 261.745 15.1185 262.539 15.4169L263.665 15.8336C265.387 16.4642 265.843 17.4777 265.843 18.8403C265.843 20.5633 264.875 21.7119 262.223 21.7119C261.294 21.7119 260.242 21.5937 259.234 21.3572L259.228 21.3516Z" fill="white"/>
<path d="M159.088 46.5486V33.4236C159.088 33.1872 159.206 33.0464 159.465 33.0464H161.267C161.503 33.0464 161.621 33.1252 161.644 33.4236L161.706 34.0543C162.421 33.2829 163.367 32.8662 164.555 32.8662C166.83 32.8662 168.333 34.3921 168.333 37.793C168.333 41.4923 166.869 43.0577 164.352 43.0577C163.384 43.0577 162.534 42.7592 161.779 42.1061V46.543C161.779 46.802 161.661 46.9203 161.402 46.9203H159.459C159.223 46.9203 159.082 46.802 159.082 46.543L159.088 46.5486ZM161.779 35.9011V40.2761C162.37 40.6928 162.928 40.8279 163.558 40.8279C164.887 40.8279 165.58 39.9946 165.58 37.9169C165.58 35.8392 164.825 35.0847 163.62 35.0847C162.99 35.0847 162.331 35.3437 161.779 35.8955V35.9011Z" fill="white"/>
<path d="M170.349 40.1973C170.349 38.2941 171.278 37.3651 173.93 37.0498L176.109 36.7908C176.07 35.6421 175.518 35.186 174.206 35.186C173.175 35.186 172.246 35.3268 171.295 35.5802C171.075 35.6196 170.94 35.5182 170.94 35.3212V33.7784C170.94 33.5194 171.041 33.4405 171.278 33.3617C172.348 33.0239 173.356 32.8662 174.623 32.8662C177.415 32.8662 178.739 34.1106 178.739 36.7063V42.5059C178.739 42.7423 178.637 42.8606 178.401 42.8606H176.599C176.362 42.8606 176.261 42.7818 176.244 42.5059L176.182 41.6331C175.507 42.5622 174.442 43.0408 173.254 43.0408C171.453 43.0633 170.343 41.9315 170.343 40.1917L170.349 40.1973ZM174.234 41.0869C174.825 41.0869 175.54 40.8673 176.137 40.3944V38.4518L174.476 38.632C173.389 38.7333 172.894 39.105 172.894 39.8763C172.894 40.6477 173.311 41.0813 174.24 41.0813L174.234 41.0869Z" fill="white"/>
<path d="M181.396 42.4948V33.4295C181.396 33.193 181.514 33.0523 181.773 33.0523H183.575C183.811 33.0523 183.93 33.1142 183.952 33.407L184.014 34.3586C184.628 33.3676 185.54 32.8721 186.823 32.8721C187.099 32.8721 187.218 32.9903 187.218 33.2268V34.9498C187.218 35.2088 187.139 35.3045 186.84 35.327C185.793 35.389 184.898 35.6649 184.087 36.3968V42.4948C184.087 42.7538 183.969 42.8721 183.71 42.8721H181.768C181.531 42.8721 181.391 42.7538 181.391 42.4948H181.396Z" fill="white"/>
<path d="M188.446 40.1973C188.446 38.2941 189.375 37.3651 192.027 37.0498L194.206 36.7908C194.167 35.6421 193.615 35.186 192.303 35.186C191.273 35.186 190.344 35.3268 189.392 35.5802C189.172 35.6196 189.037 35.5182 189.037 35.3212V33.7784C189.037 33.5194 189.139 33.4405 189.375 33.3617C190.445 33.0239 191.453 32.8662 192.72 32.8662C195.512 32.8662 196.836 34.1106 196.836 36.7063V42.5059C196.836 42.7423 196.734 42.8606 196.498 42.8606H194.696C194.46 42.8606 194.358 42.7818 194.341 42.5059L194.279 41.6331C193.604 42.5622 192.54 43.0408 191.351 43.0408C189.55 43.0633 188.44 41.9315 188.44 40.1917L188.446 40.1973ZM192.326 41.0869C192.917 41.0869 193.632 40.8673 194.229 40.3944V38.4518L192.568 38.632C191.481 38.7333 190.985 39.105 190.985 39.8763C190.985 40.6477 191.402 41.0813 192.331 41.0813L192.326 41.0869Z" fill="white"/>
<path d="M205.169 40.0398V35.1919H203.84C203.604 35.1919 203.485 35.0511 203.485 34.8146V33.4295C203.485 33.193 203.587 33.0522 203.84 33.0522H205.225L205.58 30.7774C205.619 30.5184 205.72 30.3833 205.974 30.3833H207.359C207.618 30.3833 207.713 30.5241 207.713 30.7774V33.0522H209.571C209.83 33.0522 209.926 33.193 209.926 33.4295V34.8146C209.926 35.0511 209.825 35.1919 209.571 35.1919H207.832V39.8259C207.832 40.5015 208.068 40.7774 208.721 40.7774C208.997 40.7774 209.295 40.7549 209.571 40.7155C209.808 40.6536 209.965 40.7943 209.965 41.0139V42.4216C209.965 42.6581 209.864 42.7763 209.588 42.8383C209.036 42.9396 208.558 42.9959 208.124 42.9959C205.81 42.9959 205.157 42.0443 205.157 40.0455L205.169 40.0398Z" fill="white"/>
<path d="M212.1 30.1187C212.1 29.2065 212.731 28.5928 213.626 28.5928C214.521 28.5928 215.151 29.2065 215.151 30.1187C215.151 31.0308 214.498 31.6615 213.626 31.6615C212.753 31.6615 212.1 30.9858 212.1 30.1187ZM212.258 42.4948V33.4295C212.258 33.193 212.376 33.0522 212.635 33.0522H214.577C214.836 33.0522 214.954 33.193 214.954 33.4295V42.4948C214.954 42.7538 214.836 42.8721 214.577 42.8721H212.635C212.398 42.8721 212.258 42.7538 212.258 42.4948Z" fill="white"/>
<path d="M159.51 51.2446H232.815C233.091 51.2446 233.209 51.3629 233.209 51.6613V52.4608C233.209 52.7367 233.068 52.855 232.815 52.855H159.51C159.234 52.855 159.116 52.7367 159.116 52.4608V51.6613C159.116 51.3629 159.256 51.2446 159.51 51.2446Z" fill="white"/>
<path d="M265.996 49.7245C265.754 48.6321 264.859 47.9002 263.243 47.9002H256.435C255.788 47.3146 253.682 45.4114 251.373 43.3844C250.242 42.3709 248.721 41.988 247.584 42.4328C247.139 42.613 246.773 42.9396 246.632 43.3056C246.531 43.5477 246.554 43.7898 246.694 44.0544L249.51 48.4914L244.651 48.8743C244.346 48.5927 243.676 48.024 242.522 47.0499C241.711 46.363 240.315 45.8168 239.059 46.4644C238.733 46.6276 238.474 46.9486 238.389 47.2752C238.327 47.5398 238.367 47.8044 238.491 48.0071C238.569 48.1479 241.368 52.9508 241.368 52.9508C241.469 53.131 241.649 53.2774 241.875 53.2943C242.179 53.3337 244.566 53.7222 246.492 54.0263C247.77 54.229 248.924 54.4092 249.268 54.4711C249.369 54.4936 249.493 54.4936 249.651 54.4936C251.109 54.4936 255.078 53.8855 261.278 52.8101C262.55 52.5905 263.496 52.4385 263.992 52.3653C264.729 52.2695 265.247 51.9204 265.63 51.3912C265.974 50.9069 266.114 50.2988 265.996 49.7301V49.7245ZM263.902 50.9801C263.902 50.9801 262.072 51.2785 261.03 51.4475C257.584 52.033 250.416 53.2098 249.465 53.0691C249.099 53.0071 247.967 52.827 246.689 52.6243C245.028 52.3596 243.187 52.0781 242.393 51.9542C241.419 50.2707 240.326 48.4294 239.859 47.658C240.467 47.4553 241.154 47.7819 241.582 48.1423C243.265 49.5387 243.913 50.1299 243.913 50.1299C244.054 50.2707 244.239 50.3326 244.442 50.3101L250.76 49.8033C251.002 49.7808 251.227 49.64 251.328 49.4204C251.43 49.2008 251.43 48.9362 251.289 48.7335L248.13 43.7504C248.676 43.5702 249.628 43.7504 250.439 44.4598C253.175 46.8698 255.647 49.1164 255.664 49.1389C255.788 49.2628 255.946 49.3191 256.131 49.3191L263.778 49.336C264.234 49.336 264.6 49.7076 264.6 50.1637C264.6 50.5747 264.301 50.9126 263.907 50.9801H263.902Z" fill="white"/>
</g>
<defs>
<clipPath id="clip0_12237_3828">
<rect width="266.036" height="60" fill="white"/>
</clipPath>
</defs>
</svg>
